<svg width="20" height="20" viewBox="0 0 20 20" fill="none" xmlns="http://www.w3.org/2000/svg">
<path d="M16.25 10.8594C16.25 12.6512 16.25 14.443 16.25 16.2891C15.595 16.5525 14.94 16.816 14.2651 17.0874C14.0622 17.169 13.8593 17.2507 13.6502 17.3348C12.8372 17.6618 12.024 17.9885 11.2094 18.3117C11.1358 18.3409 11.0622 18.3702 10.9887 18.3995C10.8887 18.4393 10.7886 18.4789 10.6885 18.5185C10.6592 18.5303 10.6298 18.542 10.5995 18.5541C10.3996 18.6328 10.3996 18.6328 10.3125 18.6328C10.3125 16.4414 10.3125 14.25 10.3125 11.9922C10.4813 12.161 10.6243 12.3311 10.7703 12.5186C10.8825 12.6428 10.9647 12.7236 11.1361 12.7441C11.4095 12.7515 11.6185 12.6869 11.8695 12.5833C11.9099 12.5672 11.9504 12.5511 11.9921 12.5346C12.1249 12.4816 12.2574 12.4277 12.3898 12.3738C12.4827 12.3366 12.5756 12.2994 12.6685 12.2622C12.8879 12.1744 13.1069 12.086 13.3259 11.9973C13.5734 11.8971 13.8213 11.7976 14.0692 11.6983C14.4562 11.543 14.8431 11.3874 15.2298 11.2311C15.2669 11.216 15.3041 11.201 15.3424 11.1856C15.3779 11.1712 15.4135 11.1568 15.4502 11.1419C15.4848 11.1279 15.5194 11.114 15.555 11.0995C15.634 11.0671 15.7126 11.0339 15.7911 11.0003C15.8331 10.9824 15.875 10.9645 15.9183 10.946C15.9565 10.9295 15.9947 10.9129 16.0341 10.8959C16.1328 10.8594 16.1328 10.8594 16.25 10.8594Z" fill="#919EAB"/>
<path d="M3.75 10.8594C3.8905 10.8875 3.99667 10.9141 4.12633 10.9659C4.16153 10.9798 4.19673 10.9938 4.233 11.0082C4.27113 11.0235 4.30927 11.0388 4.34855 11.0546C4.3891 11.0707 4.42965 11.0869 4.47143 11.1035C4.60552 11.1569 4.73951 11.2105 4.8735 11.2642C4.96687 11.3014 5.06024 11.3387 5.15362 11.3759C5.37454 11.464 5.59541 11.5522 5.81625 11.6405C6.06611 11.7404 6.31604 11.8401 6.56598 11.9398C7.03014 12.125 7.49422 12.3103 7.95824 12.4958C7.99248 12.5094 8.02672 12.523 8.06199 12.5371C8.13163 12.5651 8.20104 12.5937 8.27023 12.6228C8.30426 12.637 8.33828 12.6511 8.37334 12.6657C8.40335 12.6785 8.43336 12.6912 8.46428 12.7043C8.62116 12.7565 8.78373 12.7698 8.94531 12.7344C9.15801 12.621 9.28355 12.4634 9.42627 12.2754C9.46752 12.2218 9.50887 12.1683 9.55032 12.1149C9.56827 12.0913 9.58621 12.0678 9.60469 12.0435C9.61913 12.0266 9.63356 12.0096 9.64844 11.9922C9.66133 11.9922 9.67422 11.9922 9.6875 11.9922C9.6875 14.1836 9.6875 16.375 9.6875 18.6328C9.24805 18.501 9.24805 18.501 9.10042 18.4414C9.04983 18.4212 9.04983 18.4212 8.99821 18.4005C8.96268 18.3861 8.92715 18.3717 8.89054 18.3568C8.85192 18.3413 8.81329 18.3258 8.77349 18.3098C8.64642 18.2587 8.51946 18.2073 8.39249 18.156C8.30262 18.1198 8.21274 18.0836 8.12286 18.0474C7.88591 17.952 7.64905 17.8565 7.4122 17.7608C7.17619 17.6656 6.94011 17.5705 6.70403 17.4754C6.43577 17.3673 6.16751 17.2592 5.89933 17.151C5.18347 16.8622 4.46672 16.5758 3.75 16.2891C3.75 14.4973 3.75 12.7055 3.75 10.8594Z" fill="#919EAB"/>
<path d="M3.71094 8.125C3.9297 8.13404 4.13069 8.23059 4.33129 8.31153C4.36965 8.32679 4.40801 8.34205 4.44753 8.35777C4.57486 8.40849 4.70206 8.45954 4.82925 8.51059C4.91929 8.54653 5.00932 8.58245 5.09937 8.61835C5.31357 8.7038 5.52769 8.78946 5.74176 8.87522C6.00155 8.97929 6.26147 9.08303 6.52138 9.18678C6.61435 9.22392 6.70732 9.26106 6.80029 9.2982C6.98496 9.37197 7.16965 9.44567 7.35436 9.51933C7.75594 9.67963 8.15726 9.84044 8.55718 10.0048C8.72079 10.072 8.88456 10.1388 9.04835 10.2056C9.12441 10.2368 9.20038 10.2682 9.27624 10.2998C9.37999 10.3431 9.48403 10.3855 9.58816 10.4279C9.61819 10.4406 9.64822 10.4534 9.67916 10.4666C10.0122 10.6 10.2651 10.4901 10.5821 10.3603C10.6391 10.3375 10.6391 10.3375 10.6972 10.3141C10.8231 10.2635 10.9488 10.2124 11.0745 10.1613C11.1636 10.1253 11.2527 10.0894 11.3418 10.0535C11.5777 9.95845 11.8135 9.863 12.0492 9.76748C12.2821 9.67315 12.5151 9.57913 12.7481 9.48509C12.8401 9.44795 12.9321 9.41082 13.0241 9.37368C13.2067 9.29993 13.3894 9.22623 13.5721 9.15254C13.6625 9.11608 13.7529 9.07961 13.8433 9.04314C13.8875 9.02529 13.9318 9.00744 13.9773 8.98904C14.2415 8.88237 14.5053 8.77499 14.7689 8.66705C14.9332 8.59984 15.0976 8.53303 15.2621 8.46628C15.3388 8.43506 15.4153 8.40367 15.4918 8.37208C15.5963 8.32893 15.7011 8.2864 15.806 8.24401C15.8517 8.22484 15.8517 8.22484 15.8984 8.20528C16.0553 8.14262 16.166 8.10322 16.3281 8.16406C16.3937 8.22078 16.3937 8.22078 16.4517 8.29391C16.4736 8.32096 16.4954 8.34801 16.518 8.37588C16.5521 8.41968 16.5521 8.41968 16.5869 8.46436C16.6108 8.49413 16.6346 8.52391 16.6592 8.55458C16.7316 8.64536 16.8034 8.73667 16.875 8.82813C16.9164 8.88063 16.9579 8.93312 16.9994 8.9856C17.0702 9.07541 17.1407 9.1655 17.2108 9.25583C17.277 9.33989 17.344 9.41998 17.4144 9.50027C17.5 9.60938 17.5 9.60938 17.5 9.72656C16.9888 9.93209 16.4775 10.1376 15.9663 10.3431C15.7287 10.4386 15.491 10.5341 15.2534 10.6297C15.2079 10.648 15.1623 10.6663 15.1154 10.6852C15.0235 10.7221 14.9315 10.7591 14.8396 10.796C14.6094 10.8886 14.3792 10.981 14.149 11.0733C13.7301 11.2413 13.3114 11.4096 12.8937 11.5802C12.7117 11.6544 12.5296 11.7282 12.3475 11.8021C12.2616 11.837 12.1758 11.8721 12.09 11.9074C11.9721 11.956 11.854 12.0039 11.7357 12.0517C11.7011 12.0661 11.6664 12.0806 11.6306 12.0955C11.3348 12.2138 11.3348 12.2138 11.1719 12.1484C11.1063 12.0917 11.1063 12.0917 11.0483 12.0186C11.0264 11.9915 11.0046 11.9645 10.982 11.9366C10.9479 11.8928 10.9479 11.8928 10.9131 11.8481C10.8893 11.8184 10.8655 11.7887 10.8409 11.758C10.7684 11.6672 10.6967 11.5758 10.625 11.4844C10.5831 11.4314 10.5412 11.3785 10.4993 11.3255C10.4276 11.2349 10.3563 11.144 10.2853 11.0529C10.204 10.9487 10.1219 10.8452 10.0391 10.7422C9.87429 10.8023 9.79134 10.9241 9.68994 11.0596C9.65215 11.1089 9.61431 11.1582 9.57642 11.2074C9.55653 11.2334 9.53664 11.2593 9.51614 11.286C9.40711 11.4264 9.29458 11.564 9.18213 11.7017C9.14027 11.753 9.09841 11.8043 9.05655 11.8556C9.03752 11.8789 9.01849 11.9023 8.99889 11.9263C8.92843 12.0129 8.85865 12.1001 8.78906 12.1875C8.56681 12.1628 8.37555 12.0845 8.16995 12.0016C8.13171 11.9864 8.09348 11.9712 8.05409 11.9555C7.92713 11.905 7.80031 11.8542 7.67349 11.8033C7.58365 11.7674 7.4938 11.7316 7.40394 11.6958C7.19011 11.6105 6.97636 11.5251 6.76266 11.4395C6.55003 11.3544 6.3373 11.2695 6.12456 11.1846C4.91493 10.7022 3.7069 10.2158 2.5 9.72656C2.52844 9.59979 2.56283 9.52862 2.6474 9.42902C2.66976 9.40234 2.69212 9.37567 2.71516 9.34819C2.73922 9.31998 2.76329 9.29176 2.78809 9.2627C2.83803 9.20318 2.88793 9.14362 2.93777 9.08401C2.96273 9.05424 2.98769 9.02446 3.0134 8.99378C3.13653 8.84521 3.25506 8.69314 3.37339 8.54074C3.42057 8.48011 3.46809 8.41974 3.51562 8.35938C3.53118 8.33668 3.54673 8.31399 3.56276 8.29062C3.61069 8.22433 3.61069 8.22433 3.71094 8.125Z" fill="#919EAB"/>
<path d="M11.9727 5.44923C12.0556 5.58754 12.0618 5.70209 12.0312 5.85938C11.9444 6.00154 11.8231 6.03948 11.6733 6.09803C11.6379 6.11192 11.6026 6.1258 11.5662 6.14011C11.5392 6.15059 11.5122 6.16108 11.4844 6.17188C11.516 6.18455 11.5477 6.19721 11.5803 6.21025C12.9621 6.76297 12.9621 6.76297 13.0531 6.79936C13.1136 6.82357 13.1741 6.84777 13.2346 6.87197C13.3853 6.93223 13.536 6.99253 13.6866 7.05291C13.9518 7.15917 14.2171 7.2652 14.483 7.36972C14.5935 7.41315 14.7038 7.45676 14.8142 7.50039C14.8659 7.52074 14.9176 7.541 14.9693 7.56115C15.04 7.58868 15.1106 7.61657 15.1811 7.64447C15.2208 7.66003 15.2605 7.67559 15.3015 7.69163C15.3906 7.73438 15.3906 7.73438 15.4297 7.81251C14.4796 8.21072 13.5242 8.59576 12.5679 8.97875C12.3248 9.07614 12.0818 9.17376 11.839 9.272C11.6008 9.36836 11.3624 9.46405 11.1239 9.55932C11.0337 9.59543 10.9437 9.63177 10.8537 9.66833C10.7289 9.71903 10.6037 9.76892 10.4785 9.81863C10.4418 9.83374 10.4051 9.84885 10.3673 9.86442C10.0018 10.0075 9.75669 9.91309 9.4067 9.77008C9.36759 9.75438 9.32847 9.73868 9.28818 9.72251C9.15892 9.67054 9.02984 9.61815 8.90076 9.56574C8.80998 9.52914 8.71918 9.49257 8.62838 9.45602C8.41318 9.36933 8.1981 9.28236 7.98307 9.19526C7.71886 9.08826 7.45447 8.98171 7.19009 8.87513C6.31613 8.52264 5.44288 8.16843 4.57031 7.81251C4.62137 7.7104 4.66205 7.7057 4.76714 7.66411C4.80116 7.65049 4.83519 7.63687 4.87025 7.62284C4.9079 7.60809 4.94555 7.59334 4.98434 7.57814C5.0238 7.56244 5.06326 7.54674 5.10391 7.53056C5.2355 7.47826 5.36723 7.42635 5.49896 7.37443C5.59098 7.33794 5.68298 7.30142 5.77497 7.26488C5.99374 7.17804 6.2126 7.09143 6.43151 7.00495C6.7484 6.87975 7.06513 6.75416 7.38185 6.62856C7.61 6.53809 7.83817 6.44768 8.06642 6.35747C8.15153 6.32379 8.23664 6.29011 8.32174 6.25643C8.36288 6.24019 8.40402 6.22395 8.44641 6.20723C8.67126 6.11817 8.89517 6.02716 9.11826 5.9338C9.16665 5.91366 9.21503 5.89354 9.26342 5.87342C9.35554 5.835 9.44753 5.79624 9.53935 5.75709C9.58089 5.73981 9.62243 5.72252 9.66523 5.70471C9.70167 5.68929 9.7381 5.67388 9.77565 5.658C9.99015 5.59196 10.1504 5.62663 10.3537 5.71046C10.397 5.72808 10.4403 5.74571 10.4849 5.76386C10.5295 5.78249 10.5742 5.80113 10.6201 5.82032C10.6884 5.84827 10.6884 5.84827 10.7581 5.87678C10.8701 5.9227 10.982 5.969 11.0938 6.01563C11.0938 5.95292 11.0895 5.89028 11.0864 5.82765C11.0875 5.72769 11.0924 5.6673 11.1304 5.57374C11.3479 5.39574 11.7223 5.299 11.9727 5.44923ZM10.1953 6.40626C10.071 6.55638 9.97298 6.69398 9.93652 6.88722C9.9678 7.02172 10.0032 7.07046 10.1172 7.14845C10.2327 7.17775 10.2327 7.17775 10.3516 7.14845C10.5353 7.0041 10.6794 6.80741 10.7227 6.57472C10.6959 6.45102 10.6458 6.40506 10.5469 6.32813C10.3971 6.25565 10.3196 6.30567 10.1953 6.40626Z" fill="#919EAB"/>
<path d="M6.23047 2.47922C6.2816 2.47907 6.33274 2.47892 6.38542 2.47877C6.49339 2.47854 6.60133 2.47887 6.70929 2.4796C6.84721 2.48049 6.98509 2.47998 7.12301 2.47904C7.25519 2.47834 7.38735 2.47883 7.51953 2.47922C7.59351 2.47875 7.59351 2.47875 7.66899 2.47826C8.09298 2.48279 8.09298 2.48279 8.28125 2.65622C8.42298 2.80541 8.44961 2.92508 8.45703 3.12497C8.44961 3.32486 8.42298 3.44453 8.28125 3.59372C8.05646 3.80079 7.81285 3.7726 7.51953 3.77072C7.4684 3.77087 7.41726 3.77102 7.36458 3.77118C7.25661 3.77141 7.14867 3.77107 7.04071 3.77034C6.90279 3.76945 6.76491 3.76996 6.62699 3.7709C6.49481 3.7716 6.36265 3.77111 6.23047 3.77072C6.18115 3.77104 6.13183 3.77136 6.08101 3.77168C5.65702 3.76716 5.65702 3.76716 5.46875 3.59372C5.32702 3.44453 5.30039 3.32486 5.29297 3.12497C5.30039 2.92508 5.32702 2.80541 5.46875 2.65622C5.69354 2.44915 5.93715 2.47734 6.23047 2.47922Z" fill="#919EAB"/>
<path d="M8.08594 4.33593C8.08594 4.56536 7.96503 4.68332 7.82043 4.84557C7.63011 5.0143 7.43238 5.01988 7.18719 5.01418C6.8362 4.97157 6.61562 4.67577 6.40625 4.41405C6.40625 4.40116 6.40625 4.38827 6.40625 4.37499C6.60151 4.36938 6.79678 4.36382 6.99204 4.3583C7.05838 4.35642 7.12472 4.35453 7.19106 4.35262C7.28676 4.34987 7.38247 4.34717 7.47818 4.34447C7.50753 4.34362 7.53688 4.34276 7.56712 4.34188C7.74014 4.33707 7.91285 4.33513 8.08594 4.33593Z" fill="#919EAB"/>
<path d="M7.66846 1.28907C7.91074 1.46937 8.0355 1.61145 8.08594 1.91407C7.53164 1.90118 6.97734 1.88828 6.40625 1.875C6.75849 1.40535 7.0585 1.10493 7.66846 1.28907Z" fill="#919EAB"/>
<path d="M13.4376 5.19532C13.5796 5.2972 13.6264 5.35432 13.6573 5.52736C13.6263 5.70068 13.5766 5.75362 13.4376 5.85939C13.2488 5.94945 13.0573 5.96136 12.8516 5.93751C12.754 5.89845 12.754 5.89845 12.6954 5.82032C12.6435 5.66282 12.6369 5.54935 12.7076 5.39796C12.8987 5.24242 13.192 5.14964 13.4376 5.19532Z" fill="#919EAB"/>
<path d="M13.164 2.81253C13.5101 2.92426 13.5101 2.92426 13.6328 3.0469C13.6779 3.21626 13.6795 3.3221 13.5937 3.47659C13.4467 3.57458 13.3339 3.57379 13.164 3.55471C13.0016 3.51878 12.8598 3.47773 12.7319 3.36917C12.6774 3.23852 12.6756 3.14791 12.6953 3.00784C12.831 2.81453 12.9332 2.77847 13.164 2.81253Z" fill="#919EAB"/>
<path d="M14.2189 3.90623C14.306 3.96558 14.306 3.96558 14.3751 4.06248C14.3897 4.17288 14.3953 4.26522 14.3922 4.37498C14.3925 4.40277 14.3928 4.43057 14.3931 4.45921C14.3916 4.58182 14.3825 4.67353 14.3249 4.78269C14.2273 4.87162 14.152 4.87902 14.0237 4.88966C13.8976 4.87859 13.8345 4.81604 13.7501 4.72654C13.6954 4.61712 13.703 4.52385 13.7013 4.40183C13.7003 4.35767 13.6993 4.31351 13.6982 4.26801C13.7123 4.12839 13.7446 4.05669 13.8282 3.94529C13.9505 3.88417 14.0865 3.879 14.2189 3.90623Z" fill="#919EAB"/>
<path d="M11.5625 2.7954C11.5903 2.79512 11.6181 2.79484 11.6467 2.79456C11.7701 2.79605 11.861 2.80496 11.9704 2.86391C12.0681 2.96944 12.0679 3.06261 12.0703 3.20311C12.0177 3.31825 11.9888 3.38056 11.875 3.43749C11.7718 3.4444 11.6706 3.44832 11.5674 3.44969C11.5392 3.45083 11.5111 3.45196 11.4821 3.45313C11.3456 3.45476 11.2656 3.44864 11.1533 3.36836C11.0907 3.2768 11.0725 3.23437 11.0742 3.12499C11.0736 3.08631 11.0736 3.08631 11.073 3.04686C11.1398 2.79533 11.3376 2.78908 11.5625 2.7954Z" fill="#919EAB"/>
<path d="M10.0341 2.80032C10.0956 2.79813 10.0956 2.79813 10.1584 2.7959C10.2734 2.81253 10.2734 2.81253 10.3653 2.88165C10.4333 2.97367 10.4509 3.01255 10.4492 3.12503C10.4496 3.15081 10.45 3.17659 10.4504 3.20316C10.4196 3.31911 10.3682 3.36548 10.2734 3.43753C10.1611 3.45828 10.1611 3.45828 10.039 3.45706C9.9786 3.45767 9.9786 3.45767 9.91696 3.45828C9.77945 3.43287 9.73433 3.38934 9.6484 3.28128C9.59459 3.14497 9.605 3.09672 9.66061 2.95901C9.76304 2.79209 9.84703 2.80467 10.0341 2.80032Z" fill="#919EAB"/>
</svg>
