<svg width="69" height="69" viewBox="0 0 69 69" fill="none" xmlns="http://www.w3.org/2000/svg">
<path d="M56.0625 37.4648C56.0625 43.6465 56.0625 49.8282 56.0625 56.1973C53.8027 57.1062 51.543 58.0151 49.2147 58.9515C48.5147 59.2332 47.8146 59.5149 47.0933 59.8051C44.2882 60.9333 41.4827 62.0603 38.6724 63.1754C38.4185 63.2762 38.1647 63.3771 37.911 63.4782C37.566 63.6156 37.2207 63.7524 36.8754 63.8889C36.7741 63.9294 36.6728 63.9698 36.5684 64.0115C35.8785 64.2832 35.8785 64.2832 35.5781 64.2832C35.5781 56.7229 35.5781 49.1625 35.5781 41.373C36.1606 41.9555 36.6539 42.5421 37.1574 43.1892C37.5447 43.6177 37.8281 43.8964 38.4194 43.9672C39.3629 43.9926 40.0839 43.7697 40.9497 43.4123C41.0893 43.3569 41.2289 43.3015 41.3726 43.2443C41.831 43.0616 42.2879 42.8757 42.7449 42.6896C43.0654 42.5611 43.3859 42.4328 43.7065 42.3047C44.4631 42.0018 45.2189 41.6968 45.9744 41.3907C46.8283 41.0449 47.6834 40.7019 48.5386 40.359C49.874 39.8235 51.2088 39.2865 52.5427 38.7471C52.6709 38.6954 52.7991 38.6436 52.9311 38.5903C53.0539 38.5406 53.1766 38.4909 53.3031 38.4397C53.4224 38.3914 53.5418 38.3431 53.6647 38.2934C53.9372 38.1814 54.2086 38.067 54.4794 37.9511C54.6241 37.8892 54.7689 37.8274 54.918 37.7637C55.0499 37.7067 55.1818 37.6496 55.3176 37.5909C55.6582 37.4648 55.6582 37.4648 56.0625 37.4648Z" fill="black"/>
<path d="M12.9375 37.4648C13.4222 37.5618 13.7885 37.6536 14.2358 37.8322C14.3573 37.8804 14.4787 37.9285 14.6039 37.9781C14.7354 38.031 14.867 38.0839 15.0025 38.1383C15.1424 38.194 15.2823 38.2497 15.4264 38.307C15.889 38.4913 16.3513 38.6764 16.8136 38.8615C17.1357 38.9899 17.4578 39.1184 17.78 39.2468C18.5422 39.5507 19.3042 39.8551 20.0661 40.1598C20.9281 40.5045 21.7903 40.8485 22.6526 41.1925C24.254 41.8312 25.8551 42.4707 27.4559 43.1106C27.5741 43.1576 27.6922 43.2045 27.8139 43.2529C28.0541 43.3495 28.2936 43.4482 28.5323 43.5486C28.6497 43.5975 28.7671 43.6464 28.888 43.6968C28.9916 43.7407 29.0951 43.7846 29.2018 43.8299C29.743 44.0099 30.3039 44.0559 30.8613 43.9336C31.5951 43.5425 32.0282 42.9988 32.5206 42.3501C32.663 42.1652 32.8056 41.9806 32.9486 41.7963C33.0105 41.715 33.0724 41.6338 33.1362 41.5501C33.186 41.4916 33.2358 41.4332 33.2871 41.373C33.3316 41.373 33.3761 41.373 33.4219 41.373C33.4219 48.9334 33.4219 56.4938 33.4219 64.2832C31.9058 63.8284 31.9058 63.8284 31.3965 63.623C31.2219 63.5531 31.2219 63.5531 31.0438 63.4818C30.9213 63.432 30.7987 63.3823 30.6724 63.331C30.5391 63.2774 30.4058 63.2239 30.2685 63.1687C29.8302 62.9924 29.3921 62.8153 28.9541 62.6381C28.644 62.5132 28.334 62.3884 28.0239 62.2636C27.2064 61.9345 26.3892 61.6048 25.5721 61.2748C24.7578 60.9461 23.9434 60.6181 23.1289 60.29C22.2034 59.9172 21.2779 59.5443 20.3527 59.1709C17.883 58.1745 15.4102 57.1863 12.9375 56.1973C12.9375 50.0156 12.9375 43.8339 12.9375 37.4648Z" fill="black"/>
<path d="M12.8027 28.0312C13.5575 28.0624 14.2509 28.3956 14.943 28.6748C15.0753 28.7274 15.2076 28.7801 15.344 28.8343C15.7833 29.0093 16.2221 29.1854 16.6609 29.3615C16.9715 29.4855 17.2822 29.6094 17.5928 29.7333C18.3318 30.0281 19.0705 30.3236 19.8091 30.6195C20.7053 30.9785 21.6021 31.3365 22.4988 31.6944C22.8195 31.8225 23.1403 31.9506 23.461 32.0788C24.0981 32.3333 24.7353 32.5876 25.3725 32.8417C26.758 33.3947 28.1425 33.9495 29.5223 34.5167C30.0867 34.7486 30.6517 34.979 31.2168 35.2093C31.4792 35.3168 31.7413 35.4251 32.003 35.5343C32.361 35.6835 32.7199 35.8301 33.0791 35.9761C33.1828 36.0202 33.2864 36.0643 33.3931 36.1098C34.5421 36.5699 35.4148 36.1907 36.5084 35.7432C36.705 35.6642 36.705 35.6642 36.9055 35.5837C37.3398 35.4089 37.7734 35.2327 38.2071 35.0564C38.5145 34.9324 38.8219 34.8085 39.1294 34.6847C39.9432 34.3566 40.7565 34.0274 41.5696 33.6978C42.3731 33.3724 43.1771 33.048 43.981 32.7236C44.2983 32.5954 44.6157 32.4673 44.933 32.3392C45.5633 32.0848 46.1935 31.8305 46.8239 31.5763C47.1357 31.4505 47.4475 31.3247 47.7593 31.1988C47.9119 31.1372 48.0646 31.0757 48.2218 31.0122C49.1331 30.6442 50.0433 30.2737 50.9527 29.9013C51.5195 29.6695 52.0869 29.4389 52.6543 29.2087C52.9187 29.101 53.1829 28.9927 53.4468 28.8837C53.8074 28.7348 54.1688 28.5881 54.5305 28.4418C54.6884 28.3757 54.6884 28.3757 54.8495 28.3082C55.3908 28.092 55.7726 27.9561 56.332 28.166C56.5582 28.3617 56.5582 28.3617 56.7584 28.614C56.8338 28.7073 56.9092 28.8006 56.9869 28.8968C57.1047 29.0479 57.1047 29.0479 57.2249 29.202C57.3071 29.3048 57.3893 29.4075 57.4741 29.5133C57.7241 29.8265 57.9717 30.1415 58.2188 30.457C58.3617 30.6382 58.5047 30.8193 58.6478 31.0003C58.8922 31.3102 59.1353 31.621 59.3774 31.9326C59.6058 32.2226 59.8369 32.4989 60.0797 32.7759C60.375 33.1523 60.375 33.1523 60.375 33.5566C58.6113 34.2657 56.8475 34.9747 55.0838 35.6837C54.2639 36.0132 53.4441 36.3428 52.6243 36.6724C52.4672 36.7355 52.31 36.7987 52.1482 36.8638C51.831 36.9913 51.5138 37.1188 51.1966 37.2464C50.4025 37.5656 49.6083 37.8846 48.8139 38.203C47.3688 38.7824 45.9244 39.363 44.4831 39.9515C43.8554 40.2076 43.2273 40.4624 42.599 40.7171C42.3026 40.8376 42.0065 40.9588 41.7106 41.0806C41.3038 41.2481 40.8962 41.4134 40.4883 41.5782C40.3687 41.6281 40.249 41.678 40.1257 41.7295C39.1052 42.1376 39.1052 42.1376 38.543 41.9121C38.3168 41.7164 38.3168 41.7164 38.1166 41.4641C38.0411 41.3708 37.9657 41.2775 37.888 41.1813C37.7703 41.0302 37.7703 41.0302 37.6501 40.8761C37.568 40.7735 37.4858 40.6708 37.4012 40.5651C37.1511 40.2518 36.9035 39.9367 36.6562 39.6211C36.5117 39.4384 36.3671 39.2557 36.2225 39.0731C35.9753 38.7604 35.7292 38.4469 35.4844 38.1324C35.2039 37.7729 34.9204 37.416 34.6348 37.0605C34.0663 37.268 33.7801 37.688 33.4303 38.1555C33.2999 38.3257 33.1694 38.4957 33.0386 38.6656C32.97 38.7551 32.9014 38.8446 32.8307 38.9368C32.4545 39.4212 32.0663 39.8957 31.6783 40.3707C31.5339 40.5478 31.3895 40.7248 31.2451 40.9019C31.1794 40.9824 31.1138 41.0628 31.0462 41.1457C30.8031 41.4447 30.5623 41.7455 30.3223 42.0469C29.5555 41.9616 28.8957 41.6914 28.1863 41.4055C28.0544 41.3531 27.9225 41.3006 27.7866 41.2466C27.3486 41.0723 26.9111 40.8968 26.4735 40.7213C26.1636 40.5977 25.8536 40.4741 25.5436 40.3505C24.8059 40.0564 24.0685 39.7615 23.3312 39.4662C22.5976 39.1725 21.8637 38.8797 21.1297 38.5869C16.9565 36.9225 12.7888 35.2445 8.625 33.5566C8.72311 33.1193 8.84177 32.8737 9.13353 32.5301C9.21067 32.4381 9.28782 32.3461 9.3673 32.2513C9.45032 32.1539 9.53335 32.0566 9.6189 31.9563C9.79122 31.751 9.96336 31.5455 10.1353 31.3399C10.2214 31.2371 10.3075 31.1344 10.3962 31.0285C10.821 30.516 11.2299 29.9913 11.6382 29.4656C11.801 29.2564 11.9649 29.0481 12.1289 28.8398C12.1826 28.7616 12.2362 28.6833 12.2915 28.6026C12.4569 28.374 12.4569 28.374 12.8027 28.0312Z" fill="black"/>
<path d="M41.3057 18.7998C41.592 19.277 41.6132 19.6722 41.5078 20.2148C41.2081 20.7053 40.7895 20.8362 40.2728 21.0382C40.1509 21.0861 40.029 21.134 39.9035 21.1833C39.8103 21.2195 39.7171 21.2557 39.6211 21.293C39.7303 21.3367 39.8395 21.3803 39.952 21.4253C44.7192 23.3322 44.7192 23.3322 45.0331 23.4578C45.2418 23.5413 45.4506 23.6248 45.6594 23.7082C46.1792 23.9162 46.6991 24.1242 47.2188 24.3325C48.1337 24.6991 49.049 25.0649 49.9663 25.4255C50.3474 25.5753 50.7282 25.7258 51.1091 25.8763C51.2873 25.9465 51.4657 26.0164 51.6442 26.0859C51.888 26.1809 52.1314 26.2771 52.3748 26.3734C52.5118 26.4271 52.6489 26.4808 52.7901 26.5361C53.0977 26.6836 53.0977 26.6836 53.2324 26.9531C49.9548 28.3269 46.6585 29.6553 43.3594 30.9767C42.5206 31.3126 41.6821 31.6495 40.8444 31.9884C40.0229 32.3208 39.2004 32.6509 38.3773 32.9796C38.0663 33.1042 37.7556 33.2296 37.4453 33.3557C37.0145 33.5306 36.5828 33.7027 36.1507 33.8742C36.0241 33.9264 35.8976 33.9785 35.7671 34.0322C34.5061 34.5259 33.6606 34.2001 32.4531 33.7067C32.3182 33.6526 32.1832 33.5984 32.0442 33.5426C31.5983 33.3633 31.1529 33.1826 30.7076 33.0018C30.3944 32.8755 30.0812 32.7493 29.7679 32.6232C29.0255 32.3242 28.2834 32.0241 27.5416 31.7236C26.6301 31.3545 25.7179 30.9869 24.8058 30.6192C21.7906 29.4031 18.7779 28.1811 15.7676 26.9531C15.9437 26.6008 16.0841 26.5846 16.4466 26.4412C16.564 26.3942 16.6814 26.3472 16.8024 26.2988C16.9322 26.2479 17.0621 26.197 17.196 26.1446C17.3321 26.0904 17.4682 26.0362 17.6085 25.9804C18.0625 25.8 18.5169 25.6209 18.9714 25.4417C19.2889 25.3158 19.6063 25.1899 19.9237 25.0638C20.6784 24.7642 21.4335 24.4654 22.1887 24.167C23.282 23.7351 24.3747 23.3018 25.4674 22.8685C26.2545 22.5564 27.0417 22.2445 27.8291 21.9332C28.1228 21.817 28.4164 21.7008 28.71 21.5846C28.8519 21.5286 28.9939 21.4726 29.1401 21.4149C29.9158 21.1076 30.6883 20.7937 31.458 20.4716C31.6249 20.4021 31.7919 20.3327 31.9588 20.2633C32.2766 20.1307 32.594 19.997 32.9108 19.8619C33.0541 19.8023 33.1974 19.7427 33.345 19.6812C33.4707 19.628 33.5965 19.5749 33.726 19.5201C34.466 19.2922 35.019 19.4119 35.7203 19.701C35.8697 19.7619 36.0191 19.8227 36.173 19.8853C36.3269 19.9496 36.4808 20.0139 36.6394 20.0801C36.875 20.1765 36.875 20.1765 37.1153 20.2749C37.5019 20.4333 37.8879 20.593 38.2734 20.7539C38.2734 20.5376 38.2588 20.3214 38.2482 20.1053C38.2519 19.7605 38.2689 19.5522 38.3998 19.2294C39.1504 18.6153 40.4419 18.2815 41.3057 18.7998ZM35.1738 22.1016C34.7451 22.6195 34.4068 23.0942 34.281 23.7609C34.3889 24.2249 34.5111 24.3931 34.9043 24.6621C35.3028 24.7632 35.3028 24.7632 35.7129 24.6621C36.3467 24.1641 36.8438 23.4855 36.9932 22.6827C36.9009 22.256 36.728 22.0974 36.3867 21.832C35.8699 21.582 35.6025 21.7545 35.1738 22.1016Z" fill="black"/>
<path d="M21.4951 8.5534C21.6715 8.55289 21.8479 8.55237 22.0297 8.55184C22.4022 8.55105 22.7746 8.55219 23.147 8.55472C23.6229 8.55779 24.0986 8.55602 24.5744 8.5528C25.0304 8.55037 25.4864 8.55207 25.9424 8.5534C26.1976 8.55177 26.1976 8.55177 26.458 8.5501C27.9208 8.56571 27.9208 8.56571 28.5703 9.16406C29.0593 9.67877 29.1512 10.0916 29.1768 10.7812C29.1512 11.4709 29.0593 11.8837 28.5703 12.3984C27.7948 13.1128 26.9543 13.0156 25.9424 13.0091C25.766 13.0096 25.5896 13.0101 25.4078 13.0107C25.0353 13.0114 24.6629 13.0103 24.2905 13.0078C23.8146 13.0047 23.3389 13.0065 22.8631 13.0097C22.4071 13.0121 21.9511 13.0104 21.4951 13.0091C21.325 13.0102 21.1548 13.0113 20.9795 13.0124C19.5167 12.9968 19.5167 12.9968 18.8672 12.3984C18.3782 11.8837 18.2863 11.4709 18.2607 10.7812C18.2863 10.0916 18.3782 9.67877 18.8672 9.16406C19.6427 8.44967 20.4832 8.54692 21.4951 8.5534Z" fill="black"/>
<path d="M27.8965 14.959C27.8965 15.7505 27.4793 16.1575 26.9805 16.7173C26.3239 17.2994 25.6417 17.3186 24.7958 17.299C23.5849 17.1519 22.8239 16.1314 22.1016 15.2285C22.1016 15.184 22.1016 15.1396 22.1016 15.0938C22.7752 15.0744 23.4489 15.0552 24.1226 15.0362C24.3514 15.0297 24.5803 15.0231 24.8091 15.0166C25.1393 15.0071 25.4695 14.9978 25.7997 14.9885C25.901 14.9855 26.0022 14.9826 26.1065 14.9795C26.7035 14.9629 27.2993 14.9562 27.8965 14.959Z" fill="black"/>
<path d="M26.4562 4.44727C27.2921 5.06932 27.7225 5.5595 27.8965 6.60352C25.9842 6.55904 24.0718 6.51457 22.1016 6.46875C23.3168 4.84845 24.3518 3.81198 26.4562 4.44727Z" fill="black"/>
<path d="M46.3594 17.9238C46.8493 18.2753 47.0108 18.4724 47.1174 19.0693C47.0107 19.6673 46.8389 19.85 46.3594 20.2148C45.7083 20.5256 45.0475 20.5667 44.3379 20.4844C44.001 20.3496 44.001 20.3496 43.7988 20.0801C43.6201 19.5367 43.5972 19.1452 43.841 18.6229C44.5002 18.0863 45.5123 17.7662 46.3594 17.9238Z" fill="black"/>
<path d="M45.416 9.70313C46.6101 10.0886 46.6101 10.0886 47.0332 10.5117C47.189 11.096 47.1945 11.4612 46.8984 11.9941C46.3913 12.3322 46.0022 12.3295 45.416 12.2637C44.8558 12.1397 44.3666 11.9981 43.9251 11.6235C43.7373 11.1728 43.731 10.8602 43.7988 10.377C44.2671 9.71005 44.6196 9.58562 45.416 9.70313Z" fill="black"/>
<path d="M49.0547 13.4766C49.3553 13.6813 49.3553 13.6813 49.5938 14.0156C49.6442 14.3965 49.6634 14.7151 49.6527 15.0937C49.6537 15.1896 49.6547 15.2855 49.6556 15.3843C49.6505 15.8073 49.6192 16.1237 49.4206 16.5004C49.0839 16.8072 48.824 16.8327 48.3814 16.8694C47.9463 16.8312 47.7287 16.6154 47.4375 16.3066C47.2488 15.9292 47.2748 15.6074 47.2691 15.1864C47.2656 15.034 47.2621 14.8817 47.2585 14.7247C47.307 14.243 47.4186 13.9957 47.7071 13.6113C48.1288 13.4005 48.598 13.3826 49.0547 13.4766Z" fill="black"/>
<path d="M39.8907 9.64416C39.9866 9.64321 40.0825 9.64225 40.1813 9.64127C40.6068 9.64643 40.9207 9.67716 41.2978 9.88053C41.6349 10.2446 41.6343 10.566 41.6426 11.0508C41.4613 11.448 41.3616 11.663 40.9688 11.8594C40.6129 11.8832 40.2637 11.8968 39.9075 11.9015C39.8104 11.9054 39.7133 11.9093 39.6133 11.9133C39.1425 11.919 38.8664 11.8979 38.4788 11.6209C38.2631 11.305 38.2002 11.1586 38.2061 10.7812C38.204 10.6478 38.204 10.6478 38.2019 10.5117C38.4324 9.64394 39.1147 9.62237 39.8907 9.64416Z" fill="black"/>
<path d="M34.618 9.66101C34.8301 9.65345 34.8301 9.65345 35.0465 9.64574C35.4434 9.70312 35.4434 9.70312 35.7603 9.9416C35.995 10.2591 36.0559 10.3932 36.0499 10.7812C36.0513 10.8702 36.0526 10.9591 36.0541 11.0508C35.9478 11.4508 35.7705 11.6108 35.4434 11.8594C35.056 11.931 35.056 11.931 34.6348 11.9268C34.4264 11.9288 34.4264 11.9288 34.2137 11.931C33.7393 11.8433 33.5836 11.6931 33.2872 11.3203C33.1015 10.85 33.1374 10.6836 33.3293 10.2085C33.6827 9.6326 33.9724 9.67601 34.618 9.66101Z" fill="black"/>
</svg>
